,
Brought to you by  http://www.scenetime.com/signup.php
 
 Hottest scene tracker on the net !!!   
 
No fake torrents from scenebalance 
shame on those who comment fake before downloading my torrents

    seed back for speed


 



...................................NFO:.................................................[pre]

*******************************************************************************
                 River.Of.Darkness.2011.DVDRip.DivX-PRESTiGE 
*******************************************************************************

-------------------------------------------------------------------------------
                              General Information
-------------------------------------------------------------------------------

TiTLE............: River.Of.Darkness.2011.DVDRip.DivX-PRESTiGE 

iMDB.............: http://www.imdb.com/title/tt1421049/

GENRE............: Horror

SOURCE...........: DVD 0MNiDVD MANY THANKS!!

ENCODED by.......: akosipalos

FiLE SiZE........: 805MB

SUBS.............: N/A

DURATiON.........: 1h 24mn

Encoder's Note...: just made a few adjustment on colors, brightness, contrast etc... Hope you'd like it.. Enjoy!!


ViDEO iNFO:

ID                               : 0
Format                           : MPEG-4 Visual
Format settings, BVOP            : Yes
Format settings, QPel            : No
Format settings, GMC             : No warppoints
Format settings, Matrix          : Default (H.263)
Muxing mode                      : Packed bitstream
Codec ID                         : DX50
Codec ID/Hint                    : DivX 5
Duration                         : 1h 24mn
Bit rate                         : 1 065 Kbps
Width                            : 640 pixels
Height                           : 288 pixels
Display aspect ratio             : 2.222
Frame rate                       : 29.970 fps
Color space                      : YUV
Chroma subsampling               : 4:2:0
Bit depth                        : 8 bits
Scan type                        : Progressive
Bits/(Pixel*Frame)               : 0.193
Stream size                      : 641 MiB (80%)
Writing library                  : DivX 6.8.5 (UTC 2009-08-20)


AUDiO iNFO:

ID                               : 1
Format                           : MPEG Audio
Format version                   : Version 1
Format profile                   : Layer 3
Mode                             : Joint stereo
Mode extension                   : MS Stereo
Codec ID                         : 55
Codec ID/Hint                    : MP3
Duration                         : 1h 24mn
Bit rate mode                    : Constant
Bit rate                         : 128 Kbps
Channel(s)                       : 2 channels
Sampling rate                    : 48.0 KHz
Stream size                      : 77.0 MiB (10%)
Alignment                        : Aligned on interleaves
Interleave, duration             : 24 ms (0.72 video frame)
Interleave, preload duration     : 1584 ms



-------------------------------------------------------------------------------
                                 PLOT:
-------------------------------------------------------------------------------


A horror movie about a sheriff trying to protect his town from three brothers who have come back from the grave.


-------------------------------------------------------------------------------
                                 CAST:
-------------------------------------------------------------------------------

Kurt Angle ... Sheriff Will Logan
S. William Hinzman ... Harvey Hix
Kevin Nash ... Jayden Jacobs
Sid Eudy ... Jonah Jacobs
Bill Laing ... Joseph Jacobs
Alan Rowe Kelly ... Mary Rutledge
Bingo O'Malley Virgil
Ray Lloyd Clark Higgins


-------------------------------------------------------------------------------
                               Release Notes
-------------------------------------------------------------------------------


PRESTiGE - IS LOOKING FOR?: CAMMER'S, AUDIO SUPPLIERS, SYNCER'S, RETAIL
SUPPLIER'S, SILVER'S, SCREENER'S, LINE CAPPER'S

ENCODER'S - ANYTHING AT ALL EMAIL US AT..... prestige@hushmail.me

** ** ** ** ** ** ** ** **

PRESTiGE is the level of respect at which one is regarded by others....RIzE Above Or Sink Below...


-------------------------------------------------------------------------------
                                 GREETZ:
-------------------------------------------------------------------------------


twisted ,bigguy, CTFX, HiTM4N, smelise.paranoid53, mtyy, fifer, akosipalos, DiLLoN, imagine,"the squad" , floridajoe and To All Encoders Past And Present...


-------------------------------------------------------------------------------
Generated with Cool NFO Creator - http://fly.to/coolbeans
-------------------------------------------------------------------------------
[/pre]